# xmcd
#
# Track frame offsets:
#	150
#	21105
#	38162
#	58110
#	75862
#	100487
#	114687
#	133825
#	147042
#	168247
#	187665
#	199580
#	220512
#
# Disc length: 3217 seconds
#
# Revision: 1
# Processed by: cddbd v1.5.1PL0 Copyright (c) Steve Scherf et al.
# Submitted via: EasyCDDAExtractor 6.5.0.1
#
DISCID=a60c8f0d
DTITLE=Tuck And Patti - Paradise Found
DYEAR=1900
DGENRE=
TTITLE0=Lembraccas(Paradise Found US CD Version)
TTITLE1=Adventures In Paradise(Paradise Found US CD Version)
TTITLE2=Captain For Dark Mornings(Paradise Found US CD Version)
TTITLE3=When We're Alone(Paradise Found US CD Version)
TTITLE4=All This Love(Paradise Found US CD Version)
TTITLE5=I've Grown Accustomed To Her Face(Paradise Found US CD Version)
TTITLE6=Holiday...Paradise Found(Paradise Found US CD Version)
TTITLE7=I Will(Paradise Found US CD Version)
TTITLE8=Dance With Me(Paradise Found US CD Version)
TTITLE9=You(Paradise Found US CD Version)
TTITLE10=Walkin' One And Only(Paradise Found US CD Version)
TTITLE11=Forgiveness(Paradise Found US CD Version)
TTITLE12=Let's Stay Together(Paradise Found US CD Version)
EXTD=
EXTT0=
EXTT1=
EXTT2=
EXTT3=
EXTT4=
EXTT5=
EXTT6=
EXTT7=
EXTT8=
EXTT9=
EXTT10=
EXTT11=
EXTT12=
PLAYORDER=
